<svg width="48" height="48" viewBox="0 0 48 48" fill="none" xmlns="http://www.w3.org/2000/svg">
<circle cx="24" cy="24" r="24" fill="#FF8000"/>
<path d="M16.688 35.408C16.688 35.12 16.656 34.992 16.528 34.992L15.792 35.344C15.792 35.184 15.696 35.088 15.536 35.024L15.28 34.992C15.056 34.992 14.96 35.024 14.64 35.216C14.544 35.024 14.416 34.8 14.32 34.608C13.488 33.008 12.624 30.608 12.24 29.552C12.048 29.008 11.856 27.888 11.632 26.192C11.888 26.352 12.08 26.416 12.176 26.416C12.304 26.416 12.464 26.192 12.592 25.744C12.656 25.84 12.784 25.872 12.944 25.872C13.04 25.872 13.168 25.84 13.232 25.744L13.744 24.976L14.32 25.168H14.352C14.416 25.168 14.512 25.072 14.672 24.976C14.832 24.88 14.96 24.816 15.056 24.816L15.152 24.848C15.664 25.104 16.016 25.552 16.176 26.256C16.56 27.888 16.912 28.688 17.328 28.688C17.68 28.688 18.16 28.272 18.672 27.472C19.184 26.672 19.696 25.584 20.272 24.272C20.304 24.528 20.336 24.656 20.4 24.656C20.592 24.656 21.072 23.536 22.256 21.648C24.016 18.8 28.368 13.328 29.488 12.56C30.32 11.984 30.96 11.44 31.408 10.96C31.344 11.28 31.28 11.504 31.28 11.6C31.28 11.696 31.344 11.728 31.408 11.728L32.304 11.28V11.408C32.304 11.568 32.336 11.664 32.432 11.664C32.56 11.664 33.072 11.152 33.136 10.96L33.072 11.408L34.16 10.768L33.904 11.344C34.224 11.12 34.48 10.992 34.64 10.992C34.8 10.992 34.896 11.248 34.896 11.408C34.896 11.664 34.672 12.016 34.32 12.464C33.936 12.976 32.976 13.968 30.096 17.264C28.848 18.672 23.312 26.192 22.256 27.984L20.272 31.344C19.408 32.784 18.864 33.712 18.576 34.064C18.288 34.416 17.936 34.768 17.52 35.088L17.232 34.928L16.976 35.088L16.688 35.408Z" fill="white"/>
</svg>
